<svg xmlns="http://www.w3.org/2000/svg" xmlns:xlink="http://www.w3.org/1999/xlink" width="500" zoomAndPan="magnify" viewBox="0 0 375 374.999991" height="500" preserveAspectRatio="xMidYMid meet" version="1.0"><defs><g/></defs><rect x="-37.5" width="450" fill="#ffffff" y="-37.499999" height="449.999989" fill-opacity="1"/><rect x="-37.5" width="450" fill="#5e17eb" y="-37.499999" height="449.999989" fill-opacity="1"/><g fill="#263238" fill-opacity="1"><g transform="translate(67.271484, 198.374987)"><g><path d="M 2.046875 0 L 2.046875 -22.015625 L 12.546875 -22.015625 L 12.546875 -19.390625 L 5.0625 -19.390625 L 5.0625 -12.453125 L 11.546875 -12.453125 L 11.546875 -9.828125 L 5.0625 -9.828125 L 5.0625 -2.625 L 12.546875 -2.625 L 12.546875 0 Z M 2.046875 0 "/></g></g></g><g fill="#263238" fill-opacity="1"><g transform="translate(81.028105, 198.374987)"><g><path d="M 2.046875 -22.015625 L 7.484375 -22.015625 C 9.660156 -22.015625 11.210938 -21.722656 12.140625 -21.140625 C 13.066406 -20.566406 13.65625 -19.570312 13.90625 -18.15625 C 14.164062 -16.738281 14.296875 -14.359375 14.296875 -11.015625 C 14.296875 -7.660156 14.164062 -5.273438 13.90625 -3.859375 C 13.65625 -2.441406 13.066406 -1.441406 12.140625 -0.859375 C 11.210938 -0.285156 9.660156 0 7.484375 0 L 2.046875 0 Z M 7.421875 -2.625 C 8.703125 -2.625 9.582031 -2.765625 10.0625 -3.046875 C 10.539062 -3.335938 10.859375 -4.019531 11.015625 -5.09375 C 11.179688 -6.175781 11.265625 -8.148438 11.265625 -11.015625 C 11.265625 -13.847656 11.179688 -15.804688 11.015625 -16.890625 C 10.859375 -17.984375 10.539062 -18.671875 10.0625 -18.953125 C 9.582031 -19.242188 8.703125 -19.390625 7.421875 -19.390625 L 5.0625 -19.390625 L 5.0625 -2.625 Z M 7.421875 -2.625 "/></g></g></g><g fill="#263238" fill-opacity="1"><g transform="translate(96.576253, 198.374987)"><g><path d="M 14.5 0 L 11.421875 -17.09375 L 11.265625 -17.09375 L 8.1875 0 L 4.25 0 L 0.484375 -22.015625 L 3.515625 -22.015625 L 6.265625 -3.9375 L 6.5 -3.9375 L 9.65625 -22.015625 L 13.125 -22.015625 L 16.359375 -3.9375 L 16.515625 -3.9375 L 19.203125 -22.015625 L 22.203125 -22.015625 L 18.4375 0 Z M 14.5 0 "/></g></g></g><g fill="#263238" fill-opacity="1"><g transform="translate(118.298831, 198.374987)"><g><path d="M 12.3125 0 L 10.96875 -5.625 L 4.765625 -5.625 L 3.453125 0 L 0.453125 0 L 5.859375 -22.015625 L 10.015625 -22.015625 L 15.390625 0 Z M 7.96875 -18.75 L 7.78125 -18.75 L 5.375 -8.21875 L 10.375 -8.21875 Z M 7.96875 -18.75 "/></g></g></g><g fill="#263238" fill-opacity="1"><g transform="translate(134.134935, 198.374987)"><g><path d="M 11.484375 0 L 8.921875 -8.515625 L 5.0625 -8.515625 L 5.0625 0 L 2.046875 0 L 2.046875 -22.015625 L 8.984375 -22.015625 C 10.503906 -22.015625 11.644531 -21.742188 12.40625 -21.203125 C 13.175781 -20.660156 13.675781 -19.914062 13.90625 -18.96875 C 14.144531 -18.03125 14.265625 -16.796875 14.265625 -15.265625 C 14.265625 -13.660156 14.097656 -12.34375 13.765625 -11.3125 C 13.441406 -10.28125 12.78125 -9.539062 11.78125 -9.09375 L 14.65625 0 Z M 8.21875 -11.109375 C 9.113281 -11.109375 9.773438 -11.242188 10.203125 -11.515625 C 10.628906 -11.796875 10.90625 -12.21875 11.03125 -12.78125 C 11.164062 -13.34375 11.234375 -14.171875 11.234375 -15.265625 C 11.234375 -16.367188 11.171875 -17.195312 11.046875 -17.75 C 10.929688 -18.3125 10.664062 -18.722656 10.25 -18.984375 C 9.832031 -19.253906 9.164062 -19.390625 8.25 -19.390625 L 5.0625 -19.390625 L 5.0625 -11.109375 Z M 8.21875 -11.109375 "/></g></g></g><g fill="#263238" fill-opacity="1"><g transform="translate(149.87507, 198.374987)"><g><path d="M 2.046875 -22.015625 L 7.484375 -22.015625 C 9.660156 -22.015625 11.210938 -21.722656 12.140625 -21.140625 C 13.066406 -20.566406 13.65625 -19.570312 13.90625 -18.15625 C 14.164062 -16.738281 14.296875 -14.359375 14.296875 -11.015625 C 14.296875 -7.660156 14.164062 -5.273438 13.90625 -3.859375 C 13.65625 -2.441406 13.066406 -1.441406 12.140625 -0.859375 C 11.210938 -0.285156 9.660156 0 7.484375 0 L 2.046875 0 Z M 7.421875 -2.625 C 8.703125 -2.625 9.582031 -2.765625 10.0625 -3.046875 C 10.539062 -3.335938 10.859375 -4.019531 11.015625 -5.09375 C 11.179688 -6.175781 11.265625 -8.148438 11.265625 -11.015625 C 11.265625 -13.847656 11.179688 -15.804688 11.015625 -16.890625 C 10.859375 -17.984375 10.539062 -18.671875 10.0625 -18.953125 C 9.582031 -19.242188 8.703125 -19.390625 7.421875 -19.390625 L 5.0625 -19.390625 L 5.0625 -2.625 Z M 7.421875 -2.625 "/></g></g></g><g fill="#263238" fill-opacity="1"><g transform="translate(165.743172, 198.374987)"><g/></g></g><g fill="#263238" fill-opacity="1"><g transform="translate(171.885662, 198.374987)"><g><path d="M 14.5 0 L 11.421875 -17.09375 L 11.265625 -17.09375 L 8.1875 0 L 4.25 0 L 0.484375 -22.015625 L 3.515625 -22.015625 L 6.265625 -3.9375 L 6.5 -3.9375 L 9.65625 -22.015625 L 13.125 -22.015625 L 16.359375 -3.9375 L 16.515625 -3.9375 L 19.203125 -22.015625 L 22.203125 -22.015625 L 18.4375 0 Z M 14.5 0 "/></g></g></g><g fill="#263238" fill-opacity="1"><g transform="translate(194.536093, 198.374987)"><g><path d="M 11.6875 0 L 11.6875 -9.734375 L 5.0625 -9.734375 L 5.0625 0 L 2.046875 0 L 2.046875 -22.015625 L 5.0625 -22.015625 L 5.0625 -12.484375 L 11.6875 -12.484375 L 11.6875 -22.015625 L 14.71875 -22.015625 L 14.71875 0 Z M 11.6875 0 "/></g></g></g><g fill="#263238" fill-opacity="1"><g transform="translate(211.267984, 198.374987)"><g><path d="M 2.109375 0 L 2.109375 -22.015625 L 5.15625 -22.015625 L 5.15625 0 Z M 2.109375 0 "/></g></g></g><g fill="#263238" fill-opacity="1"><g transform="translate(218.530198, 198.374987)"><g><path d="M 5.125 0 L 5.125 -19.328125 L 0.453125 -19.328125 L 0.453125 -22.015625 L 12.796875 -22.015625 L 12.796875 -19.328125 L 8.125 -19.328125 L 8.125 0 Z M 5.125 0 "/></g></g></g><g fill="#263238" fill-opacity="1"><g transform="translate(231.774937, 198.374987)"><g><path d="M 2.046875 0 L 2.046875 -22.015625 L 12.546875 -22.015625 L 12.546875 -19.390625 L 5.0625 -19.390625 L 5.0625 -12.453125 L 11.546875 -12.453125 L 11.546875 -9.828125 L 5.0625 -9.828125 L 5.0625 -2.625 L 12.546875 -2.625 L 12.546875 0 Z M 2.046875 0 "/></g></g></g><g fill="#263238" fill-opacity="1"><g transform="translate(245.531558, 198.374987)"><g><path d="M 11.6875 0 L 11.6875 -9.734375 L 5.0625 -9.734375 L 5.0625 0 L 2.046875 0 L 2.046875 -22.015625 L 5.0625 -22.015625 L 5.0625 -12.484375 L 11.6875 -12.484375 L 11.6875 -22.015625 L 14.71875 -22.015625 L 14.71875 0 Z M 11.6875 0 "/></g></g></g><g fill="#263238" fill-opacity="1"><g transform="translate(262.26346, 198.374987)"><g><path d="M 2.046875 0 L 2.046875 -22.015625 L 12.546875 -22.015625 L 12.546875 -19.390625 L 5.0625 -19.390625 L 5.0625 -12.453125 L 11.546875 -12.453125 L 11.546875 -9.828125 L 5.0625 -9.828125 L 5.0625 -2.625 L 12.546875 -2.625 L 12.546875 0 Z M 2.046875 0 "/></g></g></g><g fill="#263238" fill-opacity="1"><g transform="translate(276.020081, 198.374987)"><g><path d="M 12.3125 0 L 10.96875 -5.625 L 4.765625 -5.625 L 3.453125 0 L 0.453125 0 L 5.859375 -22.015625 L 10.015625 -22.015625 L 15.390625 0 Z M 7.96875 -18.75 L 7.78125 -18.75 L 5.375 -8.21875 L 10.375 -8.21875 Z M 7.96875 -18.75 "/></g></g></g><g fill="#263238" fill-opacity="1"><g transform="translate(291.856186, 198.374987)"><g><path d="M 2.046875 -22.015625 L 7.484375 -22.015625 C 9.660156 -22.015625 11.210938 -21.722656 12.140625 -21.140625 C 13.066406 -20.566406 13.65625 -19.570312 13.90625 -18.15625 C 14.164062 -16.738281 14.296875 -14.359375 14.296875 -11.015625 C 14.296875 -7.660156 14.164062 -5.273438 13.90625 -3.859375 C 13.65625 -2.441406 13.066406 -1.441406 12.140625 -0.859375 C 11.210938 -0.285156 9.660156 0 7.484375 0 L 2.046875 0 Z M 7.421875 -2.625 C 8.703125 -2.625 9.582031 -2.765625 10.0625 -3.046875 C 10.539062 -3.335938 10.859375 -4.019531 11.015625 -5.09375 C 11.179688 -6.175781 11.265625 -8.148438 11.265625 -11.015625 C 11.265625 -13.847656 11.179688 -15.804688 11.015625 -16.890625 C 10.859375 -17.984375 10.539062 -18.671875 10.0625 -18.953125 C 9.582031 -19.242188 8.703125 -19.390625 7.421875 -19.390625 L 5.0625 -19.390625 L 5.0625 -2.625 Z M 7.421875 -2.625 "/></g></g></g><path stroke-linecap="butt" transform="matrix(0.75, 0, 0, 0.75, 29.728463, 185.999988)" fill="none" stroke-linejoin="miter" d="M -0.00253361 2.000016 L 50.039136 2.000016 " stroke="#ffc542" stroke-width="4" stroke-opacity="1" stroke-miterlimit="4"/><path stroke-linecap="butt" transform="matrix(0.75, 0, 0, 0.75, 307.740219, 185.999988)" fill="none" stroke-linejoin="miter" d="M -0.00258432 2.000016 L 50.044294 2.000016 " stroke="#ffc542" stroke-width="4" stroke-opacity="1" stroke-miterlimit="4"/><g fill="#ffc542" fill-opacity="1"><g transform="translate(86.490233, 215.824966)"><g><path d="M 3.671875 0.109375 C 2.984375 0.109375 2.382812 -0.03125 1.875 -0.3125 C 1.375 -0.59375 1 -0.976562 0.75 -1.46875 C 0.726562 -1.519531 0.71875 -1.566406 0.71875 -1.609375 C 0.71875 -1.691406 0.75 -1.757812 0.8125 -1.8125 C 0.875 -1.875 0.957031 -1.90625 1.0625 -1.90625 C 1.207031 -1.90625 1.3125 -1.835938 1.375 -1.703125 C 1.570312 -1.335938 1.863281 -1.050781 2.25 -0.84375 C 2.644531 -0.644531 3.117188 -0.546875 3.671875 -0.546875 C 4.304688 -0.546875 4.800781 -0.703125 5.15625 -1.015625 C 5.519531 -1.335938 5.703125 -1.785156 5.703125 -2.359375 C 5.703125 -2.859375 5.523438 -3.269531 5.171875 -3.59375 C 4.816406 -3.925781 4.289062 -4.140625 3.59375 -4.234375 C 2.78125 -4.347656 2.140625 -4.613281 1.671875 -5.03125 C 1.210938 -5.445312 0.984375 -5.953125 0.984375 -6.546875 C 0.984375 -6.972656 1.085938 -7.347656 1.296875 -7.671875 C 1.515625 -7.992188 1.820312 -8.242188 2.21875 -8.421875 C 2.613281 -8.609375 3.066406 -8.703125 3.578125 -8.703125 C 4.109375 -8.703125 4.597656 -8.570312 5.046875 -8.3125 C 5.492188 -8.0625 5.820312 -7.753906 6.03125 -7.390625 C 6.0625 -7.335938 6.078125 -7.28125 6.078125 -7.21875 C 6.078125 -7.15625 6.0625 -7.097656 6.03125 -7.046875 C 6 -7.003906 5.953125 -6.96875 5.890625 -6.9375 C 5.867188 -6.925781 5.828125 -6.921875 5.765625 -6.921875 C 5.628906 -6.921875 5.523438 -6.972656 5.453125 -7.078125 C 5.023438 -7.722656 4.398438 -8.046875 3.578125 -8.046875 C 2.960938 -8.046875 2.484375 -7.90625 2.140625 -7.625 C 1.804688 -7.351562 1.640625 -6.972656 1.640625 -6.484375 C 1.640625 -6.066406 1.804688 -5.71875 2.140625 -5.4375 C 2.484375 -5.164062 3.003906 -4.96875 3.703125 -4.84375 C 4.628906 -4.695312 5.304688 -4.414062 5.734375 -4 C 6.160156 -3.582031 6.375 -3.035156 6.375 -2.359375 C 6.375 -1.859375 6.257812 -1.421875 6.03125 -1.046875 C 5.8125 -0.671875 5.5 -0.382812 5.09375 -0.1875 C 4.6875 0.0078125 4.210938 0.109375 3.671875 0.109375 Z M 3.671875 0.109375 "/></g></g></g><g fill="#ffc542" fill-opacity="1"><g transform="translate(93.569227, 215.824966)"><g><path d="M 1.4375 0 C 1.332031 0 1.25 -0.03125 1.1875 -0.09375 C 1.125 -0.15625 1.09375 -0.234375 1.09375 -0.328125 L 1.09375 -8.265625 C 1.09375 -8.359375 1.125 -8.4375 1.1875 -8.5 C 1.25 -8.5625 1.332031 -8.59375 1.4375 -8.59375 L 6.71875 -8.59375 C 6.8125 -8.59375 6.890625 -8.5625 6.953125 -8.5 C 7.015625 -8.4375 7.046875 -8.359375 7.046875 -8.265625 C 7.046875 -8.171875 7.015625 -8.09375 6.953125 -8.03125 C 6.890625 -7.96875 6.8125 -7.9375 6.71875 -7.9375 L 1.765625 -7.9375 L 1.765625 -4.625 L 5.40625 -4.625 C 5.5 -4.625 5.578125 -4.59375 5.640625 -4.53125 C 5.703125 -4.46875 5.734375 -4.390625 5.734375 -4.296875 C 5.734375 -4.203125 5.703125 -4.117188 5.640625 -4.046875 C 5.578125 -3.984375 5.5 -3.953125 5.40625 -3.953125 L 1.765625 -3.953125 L 1.765625 -0.65625 L 6.71875 -0.65625 C 6.8125 -0.65625 6.890625 -0.625 6.953125 -0.5625 C 7.015625 -0.5 7.046875 -0.421875 7.046875 -0.328125 C 7.046875 -0.234375 7.015625 -0.15625 6.953125 -0.09375 C 6.890625 -0.03125 6.8125 0 6.71875 0 Z M 1.4375 0 "/></g></g></g><g fill="#ffc542" fill-opacity="1"><g transform="translate(101.109899, 215.824966)"><g><path d="M 7.5625 -0.46875 C 7.582031 -0.425781 7.59375 -0.378906 7.59375 -0.328125 C 7.59375 -0.242188 7.554688 -0.164062 7.484375 -0.09375 C 7.421875 -0.03125 7.347656 0 7.265625 0 C 7.117188 0 7.015625 -0.0664062 6.953125 -0.203125 L 6.140625 -2.15625 L 1.65625 -2.15625 L 0.84375 -0.203125 C 0.789062 -0.0664062 0.6875 0 0.53125 0 C 0.4375 0 0.359375 -0.03125 0.296875 -0.09375 C 0.234375 -0.164062 0.203125 -0.242188 0.203125 -0.328125 C 0.203125 -0.378906 0.210938 -0.425781 0.234375 -0.46875 L 3.578125 -8.359375 C 3.628906 -8.515625 3.734375 -8.59375 3.890625 -8.59375 C 4.035156 -8.59375 4.144531 -8.515625 4.21875 -8.359375 Z M 1.90625 -2.75 L 5.890625 -2.75 L 3.890625 -7.5 Z M 1.90625 -2.75 "/></g></g></g><g fill="#ffc542" fill-opacity="1"><g transform="translate(108.83743, 215.824966)"><g><path d="M 3.671875 0.109375 C 2.984375 0.109375 2.382812 -0.03125 1.875 -0.3125 C 1.375 -0.59375 1 -0.976562 0.75 -1.46875 C 0.726562 -1.519531 0.71875 -1.566406 0.71875 -1.609375 C 0.71875 -1.691406 0.75 -1.757812 0.8125 -1.8125 C 0.875 -1.875 0.957031 -1.90625 1.0625 -1.90625 C 1.207031 -1.90625 1.3125 -1.835938 1.375 -1.703125 C 1.570312 -1.335938 1.863281 -1.050781 2.25 -0.84375 C 2.644531 -0.644531 3.117188 -0.546875 3.671875 -0.546875 C 4.304688 -0.546875 4.800781 -0.703125 5.15625 -1.015625 C 5.519531 -1.335938 5.703125 -1.785156 5.703125 -2.359375 C 5.703125 -2.859375 5.523438 -3.269531 5.171875 -3.59375 C 4.816406 -3.925781 4.289062 -4.140625 3.59375 -4.234375 C 2.78125 -4.347656 2.140625 -4.613281 1.671875 -5.03125 C 1.210938 -5.445312 0.984375 -5.953125 0.984375 -6.546875 C 0.984375 -6.972656 1.085938 -7.347656 1.296875 -7.671875 C 1.515625 -7.992188 1.820312 -8.242188 2.21875 -8.421875 C 2.613281 -8.609375 3.066406 -8.703125 3.578125 -8.703125 C 4.109375 -8.703125 4.597656 -8.570312 5.046875 -8.3125 C 5.492188 -8.0625 5.820312 -7.753906 6.03125 -7.390625 C 6.0625 -7.335938 6.078125 -7.28125 6.078125 -7.21875 C 6.078125 -7.15625 6.0625 -7.097656 6.03125 -7.046875 C 6 -7.003906 5.953125 -6.96875 5.890625 -6.9375 C 5.867188 -6.925781 5.828125 -6.921875 5.765625 -6.921875 C 5.628906 -6.921875 5.523438 -6.972656 5.453125 -7.078125 C 5.023438 -7.722656 4.398438 -8.046875 3.578125 -8.046875 C 2.960938 -8.046875 2.484375 -7.90625 2.140625 -7.625 C 1.804688 -7.351562 1.640625 -6.972656 1.640625 -6.484375 C 1.640625 -6.066406 1.804688 -5.71875 2.140625 -5.4375 C 2.484375 -5.164062 3.003906 -4.96875 3.703125 -4.84375 C 4.628906 -4.695312 5.304688 -4.414062 5.734375 -4 C 6.160156 -3.582031 6.375 -3.035156 6.375 -2.359375 C 6.375 -1.859375 6.257812 -1.421875 6.03125 -1.046875 C 5.8125 -0.671875 5.5 -0.382812 5.09375 -0.1875 C 4.6875 0.0078125 4.210938 0.109375 3.671875 0.109375 Z M 3.671875 0.109375 "/></g></g></g><g fill="#ffc542" fill-opacity="1"><g transform="translate(115.916424, 215.824966)"><g><path d="M 5.078125 0.109375 C 4.242188 0.109375 3.488281 -0.0820312 2.8125 -0.46875 C 2.144531 -0.851562 1.617188 -1.378906 1.234375 -2.046875 C 0.847656 -2.722656 0.65625 -3.472656 0.65625 -4.296875 C 0.65625 -5.117188 0.847656 -5.863281 1.234375 -6.53125 C 1.617188 -7.207031 2.144531 -7.738281 2.8125 -8.125 C 3.488281 -8.507812 4.242188 -8.703125 5.078125 -8.703125 C 5.890625 -8.703125 6.628906 -8.507812 7.296875 -8.125 C 7.972656 -7.738281 8.503906 -7.207031 8.890625 -6.53125 C 9.273438 -5.863281 9.46875 -5.117188 9.46875 -4.296875 C 9.46875 -3.472656 9.273438 -2.722656 8.890625 -2.046875 C 8.503906 -1.378906 7.972656 -0.851562 7.296875 -0.46875 C 6.628906 -0.0820312 5.890625 0.109375 5.078125 0.109375 Z M 5.078125 -0.546875 C 5.765625 -0.546875 6.394531 -0.707031 6.96875 -1.03125 C 7.539062 -1.363281 7.988281 -1.816406 8.3125 -2.390625 C 8.644531 -2.960938 8.8125 -3.597656 8.8125 -4.296875 C 8.8125 -4.992188 8.644531 -5.628906 8.3125 -6.203125 C 7.988281 -6.773438 7.539062 -7.222656 6.96875 -7.546875 C 6.394531 -7.878906 5.765625 -8.046875 5.078125 -8.046875 C 4.367188 -8.046875 3.726562 -7.878906 3.15625 -7.546875 C 2.582031 -7.222656 2.128906 -6.773438 1.796875 -6.203125 C 1.472656 -5.628906 1.3125 -4.992188 1.3125 -4.296875 C 1.3125 -3.597656 1.472656 -2.960938 1.796875 -2.390625 C 2.128906 -1.816406 2.582031 -1.363281 3.15625 -1.03125 C 3.726562 -0.707031 4.367188 -0.546875 5.078125 -0.546875 Z M 5.078125 -0.546875 "/></g></g></g><g fill="#ffc542" fill-opacity="1"><g transform="translate(126.040268, 215.824966)"><g><path d="M 1.4375 0 C 1.332031 0 1.25 -0.03125 1.1875 -0.09375 C 1.125 -0.15625 1.09375 -0.234375 1.09375 -0.328125 L 1.09375 -8.265625 C 1.09375 -8.359375 1.125 -8.4375 1.1875 -8.5 C 1.25 -8.5625 1.332031 -8.59375 1.4375 -8.59375 C 1.53125 -8.59375 1.613281 -8.554688 1.6875 -8.484375 L 7.265625 -1.203125 L 7.265625 -8.265625 C 7.265625 -8.359375 7.296875 -8.4375 7.359375 -8.5 C 7.421875 -8.5625 7.5 -8.59375 7.59375 -8.59375 C 7.6875 -8.59375 7.765625 -8.5625 7.828125 -8.5 C 7.898438 -8.4375 7.9375 -8.359375 7.9375 -8.265625 L 7.9375 -0.328125 C 7.9375 -0.234375 7.898438 -0.15625 7.828125 -0.09375 C 7.765625 -0.03125 7.6875 0 7.59375 0 C 7.5 0 7.421875 -0.03125 7.359375 -0.09375 L 1.765625 -7.375 L 1.765625 -0.328125 C 1.765625 -0.234375 1.734375 -0.15625 1.671875 -0.09375 C 1.609375 -0.03125 1.53125 0 1.4375 0 Z M 1.4375 0 "/></g></g></g><g fill="#ffc542" fill-opacity="1"><g transform="translate(135.064884, 215.824966)"><g><path d="M 1.4375 0 C 1.332031 0 1.25 -0.03125 1.1875 -0.09375 C 1.125 -0.15625 1.09375 -0.234375 1.09375 -0.328125 L 1.09375 -8.265625 C 1.09375 -8.359375 1.125 -8.4375 1.1875 -8.5 C 1.25 -8.5625 1.332031 -8.59375 1.4375 -8.59375 L 6.71875 -8.59375 C 6.8125 -8.59375 6.890625 -8.5625 6.953125 -8.5 C 7.015625 -8.4375 7.046875 -8.359375 7.046875 -8.265625 C 7.046875 -8.171875 7.015625 -8.09375 6.953125 -8.03125 C 6.890625 -7.96875 6.8125 -7.9375 6.71875 -7.9375 L 1.765625 -7.9375 L 1.765625 -4.625 L 5.40625 -4.625 C 5.5 -4.625 5.578125 -4.59375 5.640625 -4.53125 C 5.703125 -4.46875 5.734375 -4.390625 5.734375 -4.296875 C 5.734375 -4.203125 5.703125 -4.117188 5.640625 -4.046875 C 5.578125 -3.984375 5.5 -3.953125 5.40625 -3.953125 L 1.765625 -3.953125 L 1.765625 -0.65625 L 6.71875 -0.65625 C 6.8125 -0.65625 6.890625 -0.625 6.953125 -0.5625 C 7.015625 -0.5 7.046875 -0.421875 7.046875 -0.328125 C 7.046875 -0.234375 7.015625 -0.15625 6.953125 -0.09375 C 6.890625 -0.03125 6.8125 0 6.71875 0 Z M 1.4375 0 "/></g></g></g><g fill="#ffc542" fill-opacity="1"><g transform="translate(142.605555, 215.824966)"><g><path d="M 1.4375 0 C 1.332031 0 1.25 -0.03125 1.1875 -0.09375 C 1.125 -0.15625 1.09375 -0.234375 1.09375 -0.328125 L 1.09375 -8.265625 C 1.09375 -8.367188 1.125 -8.445312 1.1875 -8.5 C 1.25 -8.5625 1.332031 -8.59375 1.4375 -8.59375 L 3.40625 -8.59375 C 4.238281 -8.59375 4.976562 -8.40625 5.625 -8.03125 C 6.28125 -7.664062 6.789062 -7.160156 7.15625 -6.515625 C 7.53125 -5.867188 7.71875 -5.128906 7.71875 -4.296875 C 7.71875 -3.472656 7.53125 -2.734375 7.15625 -2.078125 C 6.789062 -1.421875 6.28125 -0.910156 5.625 -0.546875 C 4.976562 -0.179688 4.238281 0 3.40625 0 Z M 3.40625 -0.59375 C 4.113281 -0.59375 4.738281 -0.75 5.28125 -1.0625 C 5.832031 -1.382812 6.265625 -1.828125 6.578125 -2.390625 C 6.890625 -2.960938 7.046875 -3.597656 7.046875 -4.296875 C 7.046875 -5.003906 6.890625 -5.640625 6.578125 -6.203125 C 6.265625 -6.765625 5.832031 -7.203125 5.28125 -7.515625 C 4.738281 -7.835938 4.113281 -8 3.40625 -8 L 1.765625 -8 L 1.765625 -0.59375 Z M 3.40625 -0.59375 "/></g></g></g><g fill="#ffc542" fill-opacity="1"><g transform="translate(150.970637, 215.824966)"><g/></g></g><g fill="#ffc542" fill-opacity="1"><g transform="translate(154.191359, 215.824966)"><g><path d="M 3.671875 0.109375 C 2.984375 0.109375 2.382812 -0.03125 1.875 -0.3125 C 1.375 -0.59375 1 -0.976562 0.75 -1.46875 C 0.726562 -1.519531 0.71875 -1.566406 0.71875 -1.609375 C 0.71875 -1.691406 0.75 -1.757812 0.8125 -1.8125 C 0.875 -1.875 0.957031 -1.90625 1.0625 -1.90625 C 1.207031 -1.90625 1.3125 -1.835938 1.375 -1.703125 C 1.570312 -1.335938 1.863281 -1.050781 2.25 -0.84375 C 2.644531 -0.644531 3.117188 -0.546875 3.671875 -0.546875 C 4.304688 -0.546875 4.800781 -0.703125 5.15625 -1.015625 C 5.519531 -1.335938 5.703125 -1.785156 5.703125 -2.359375 C 5.703125 -2.859375 5.523438 -3.269531 5.171875 -3.59375 C 4.816406 -3.925781 4.289062 -4.140625 3.59375 -4.234375 C 2.78125 -4.347656 2.140625 -4.613281 1.671875 -5.03125 C 1.210938 -5.445312 0.984375 -5.953125 0.984375 -6.546875 C 0.984375 -6.972656 1.085938 -7.347656 1.296875 -7.671875 C 1.515625 -7.992188 1.820312 -8.242188 2.21875 -8.421875 C 2.613281 -8.609375 3.066406 -8.703125 3.578125 -8.703125 C 4.109375 -8.703125 4.597656 -8.570312 5.046875 -8.3125 C 5.492188 -8.0625 5.820312 -7.753906 6.03125 -7.390625 C 6.0625 -7.335938 6.078125 -7.28125 6.078125 -7.21875 C 6.078125 -7.15625 6.0625 -7.097656 6.03125 -7.046875 C 6 -7.003906 5.953125 -6.96875 5.890625 -6.9375 C 5.867188 -6.925781 5.828125 -6.921875 5.765625 -6.921875 C 5.628906 -6.921875 5.523438 -6.972656 5.453125 -7.078125 C 5.023438 -7.722656 4.398438 -8.046875 3.578125 -8.046875 C 2.960938 -8.046875 2.484375 -7.90625 2.140625 -7.625 C 1.804688 -7.351562 1.640625 -6.972656 1.640625 -6.484375 C 1.640625 -6.066406 1.804688 -5.71875 2.140625 -5.4375 C 2.484375 -5.164062 3.003906 -4.96875 3.703125 -4.84375 C 4.628906 -4.695312 5.304688 -4.414062 5.734375 -4 C 6.160156 -3.582031 6.375 -3.035156 6.375 -2.359375 C 6.375 -1.859375 6.257812 -1.421875 6.03125 -1.046875 C 5.8125 -0.671875 5.5 -0.382812 5.09375 -0.1875 C 4.6875 0.0078125 4.210938 0.109375 3.671875 0.109375 Z M 3.671875 0.109375 "/></g></g></g><g fill="#ffc542" fill-opacity="1"><g transform="translate(161.270353, 215.824966)"><g><path d="M 5.078125 0.109375 C 4.242188 0.109375 3.488281 -0.0820312 2.8125 -0.46875 C 2.144531 -0.851562 1.617188 -1.378906 1.234375 -2.046875 C 0.847656 -2.722656 0.65625 -3.472656 0.65625 -4.296875 C 0.65625 -5.117188 0.847656 -5.863281 1.234375 -6.53125 C 1.617188 -7.207031 2.144531 -7.738281 2.8125 -8.125 C 3.488281 -8.507812 4.242188 -8.703125 5.078125 -8.703125 C 5.890625 -8.703125 6.628906 -8.507812 7.296875 -8.125 C 7.972656 -7.738281 8.503906 -7.207031 8.890625 -6.53125 C 9.273438 -5.863281 9.46875 -5.117188 9.46875 -4.296875 C 9.46875 -3.472656 9.273438 -2.722656 8.890625 -2.046875 C 8.503906 -1.378906 7.972656 -0.851562 7.296875 -0.46875 C 6.628906 -0.0820312 5.890625 0.109375 5.078125 0.109375 Z M 5.078125 -0.546875 C 5.765625 -0.546875 6.394531 -0.707031 6.96875 -1.03125 C 7.539062 -1.363281 7.988281 -1.816406 8.3125 -2.390625 C 8.644531 -2.960938 8.8125 -3.597656 8.8125 -4.296875 C 8.8125 -4.992188 8.644531 -5.628906 8.3125 -6.203125 C 7.988281 -6.773438 7.539062 -7.222656 6.96875 -7.546875 C 6.394531 -7.878906 5.765625 -8.046875 5.078125 -8.046875 C 4.367188 -8.046875 3.726562 -7.878906 3.15625 -7.546875 C 2.582031 -7.222656 2.128906 -6.773438 1.796875 -6.203125 C 1.472656 -5.628906 1.3125 -4.992188 1.3125 -4.296875 C 1.3125 -3.597656 1.472656 -2.960938 1.796875 -2.390625 C 2.128906 -1.816406 2.582031 -1.363281 3.15625 -1.03125 C 3.726562 -0.707031 4.367188 -0.546875 5.078125 -0.546875 Z M 5.078125 -0.546875 "/></g></g></g><g fill="#ffc542" fill-opacity="1"><g transform="translate(171.394196, 215.824966)"><g><path d="M 0.765625 0 C 0.660156 0 0.578125 -0.03125 0.515625 -0.09375 C 0.453125 -0.15625 0.421875 -0.234375 0.421875 -0.328125 L 0.421875 -8.265625 C 0.421875 -8.359375 0.453125 -8.4375 0.515625 -8.5 C 0.578125 -8.5625 0.660156 -8.59375 0.765625 -8.59375 L 6.046875 -8.59375 C 6.140625 -8.59375 6.21875 -8.5625 6.28125 -8.5 C 6.34375 -8.4375 6.375 -8.359375 6.375 -8.265625 C 6.375 -8.171875 6.34375 -8.09375 6.28125 -8.03125 C 6.21875 -7.96875 6.140625 -7.9375 6.046875 -7.9375 L 1.09375 -7.9375 L 1.09375 -4.625 L 4.734375 -4.625 C 4.828125 -4.625 4.90625 -4.59375 4.96875 -4.53125 C 5.03125 -4.46875 5.0625 -4.390625 5.0625 -4.296875 C 5.0625 -4.203125 5.03125 -4.117188 4.96875 -4.046875 C 4.90625 -3.984375 4.828125 -3.953125 4.734375 -3.953125 L 1.09375 -3.953125 L 1.09375 -0.328125 C 1.09375 -0.234375 1.0625 -0.15625 1 -0.09375 C 0.9375 -0.03125 0.859375 0 0.765625 0 Z M 0.765625 0 "/></g></g></g><g fill="#ffc542" fill-opacity="1"><g transform="translate(178.264336, 215.824966)"><g><path d="M 6.6875 -8.59375 C 6.769531 -8.59375 6.835938 -8.5625 6.890625 -8.5 C 6.953125 -8.445312 6.984375 -8.378906 6.984375 -8.296875 C 6.984375 -8.203125 6.953125 -8.128906 6.890625 -8.078125 C 6.835938 -8.023438 6.769531 -8 6.6875 -8 L 3.90625 -8 L 3.90625 -0.328125 C 3.90625 -0.234375 3.875 -0.15625 3.8125 -0.09375 C 3.75 -0.03125 3.671875 0 3.578125 0 C 3.484375 0 3.40625 -0.03125 3.34375 -0.09375 C 3.28125 -0.15625 3.25 -0.234375 3.25 -0.328125 L 3.25 -8 L 0.46875 -8 C 0.375 -8 0.300781 -8.023438 0.25 -8.078125 C 0.195312 -8.128906 0.171875 -8.203125 0.171875 -8.296875 C 0.171875 -8.378906 0.195312 -8.445312 0.25 -8.5 C 0.300781 -8.5625 0.375 -8.59375 0.46875 -8.59375 Z M 6.6875 -8.59375 "/></g></g></g><g fill="#ffc542" fill-opacity="1"><g transform="translate(185.409283, 215.824966)"><g><path d="M 9.671875 -8.59375 C 9.765625 -8.59375 9.835938 -8.5625 9.890625 -8.5 C 9.953125 -8.4375 9.984375 -8.351562 9.984375 -8.25 C 9.984375 -8.21875 9.976562 -8.164062 9.96875 -8.09375 L 7.703125 -0.28125 C 7.671875 -0.195312 7.625 -0.128906 7.5625 -0.078125 C 7.5 -0.0234375 7.429688 0 7.359375 0 C 7.273438 0 7.203125 -0.0234375 7.140625 -0.078125 C 7.078125 -0.128906 7.035156 -0.195312 7.015625 -0.28125 L 5.140625 -6.890625 L 3.296875 -0.28125 C 3.222656 -0.09375 3.109375 0 2.953125 0 C 2.867188 0 2.796875 -0.0234375 2.734375 -0.078125 C 2.671875 -0.140625 2.628906 -0.207031 2.609375 -0.28125 L 0.328125 -8.09375 C 0.316406 -8.164062 0.3125 -8.210938 0.3125 -8.234375 C 0.3125 -8.335938 0.335938 -8.421875 0.390625 -8.484375 C 0.453125 -8.554688 0.535156 -8.59375 0.640625 -8.59375 C 0.804688 -8.59375 0.910156 -8.507812 0.953125 -8.34375 L 2.953125 -1.453125 L 4.84375 -8.046875 C 4.851562 -8.109375 4.890625 -8.160156 4.953125 -8.203125 C 5.015625 -8.242188 5.078125 -8.265625 5.140625 -8.265625 C 5.222656 -8.265625 5.289062 -8.242188 5.34375 -8.203125 C 5.40625 -8.160156 5.445312 -8.109375 5.46875 -8.046875 L 7.359375 -1.453125 L 9.34375 -8.375 C 9.363281 -8.4375 9.398438 -8.488281 9.453125 -8.53125 C 9.515625 -8.570312 9.585938 -8.59375 9.671875 -8.59375 Z M 9.671875 -8.59375 "/></g></g></g><g fill="#ffc542" fill-opacity="1"><g transform="translate(194.840392, 215.824966)"><g><path d="M 7.5625 -0.46875 C 7.582031 -0.425781 7.59375 -0.378906 7.59375 -0.328125 C 7.59375 -0.242188 7.554688 -0.164062 7.484375 -0.09375 C 7.421875 -0.03125 7.347656 0 7.265625 0 C 7.117188 0 7.015625 -0.0664062 6.953125 -0.203125 L 6.140625 -2.15625 L 1.65625 -2.15625 L 0.84375 -0.203125 C 0.789062 -0.0664062 0.6875 0 0.53125 0 C 0.4375 0 0.359375 -0.03125 0.296875 -0.09375 C 0.234375 -0.164062 0.203125 -0.242188 0.203125 -0.328125 C 0.203125 -0.378906 0.210938 -0.425781 0.234375 -0.46875 L 3.578125 -8.359375 C 3.628906 -8.515625 3.734375 -8.59375 3.890625 -8.59375 C 4.035156 -8.59375 4.144531 -8.515625 4.21875 -8.359375 Z M 1.90625 -2.75 L 5.890625 -2.75 L 3.890625 -7.5 Z M 1.90625 -2.75 "/></g></g></g><g fill="#ffc542" fill-opacity="1"><g transform="translate(202.567923, 215.824966)"><g><path d="M 6.328125 -0.5 C 6.378906 -0.40625 6.40625 -0.320312 6.40625 -0.25 C 6.40625 -0.164062 6.375 -0.101562 6.3125 -0.0625 C 6.25 -0.0195312 6.160156 0 6.046875 0 C 5.972656 0 5.914062 -0.015625 5.875 -0.046875 C 5.832031 -0.078125 5.789062 -0.117188 5.75 -0.171875 L 3.734375 -3.40625 L 1.765625 -3.40625 L 1.765625 -0.328125 C 1.765625 -0.234375 1.734375 -0.15625 1.671875 -0.09375 C 1.609375 -0.03125 1.53125 0 1.4375 0 C 1.332031 0 1.25 -0.03125 1.1875 -0.09375 C 1.125 -0.15625 1.09375 -0.234375 1.09375 -0.328125 L 1.09375 -8.265625 C 1.09375 -8.367188 1.125 -8.445312 1.1875 -8.5 C 1.25 -8.5625 1.332031 -8.59375 1.4375 -8.59375 L 3.53125 -8.59375 C 4.0625 -8.59375 4.535156 -8.484375 4.953125 -8.265625 C 5.367188 -8.046875 5.691406 -7.738281 5.921875 -7.34375 C 6.160156 -6.945312 6.28125 -6.492188 6.28125 -5.984375 C 6.28125 -5.378906 6.113281 -4.859375 5.78125 -4.421875 C 5.445312 -3.984375 5 -3.6875 4.4375 -3.53125 Z M 3.53125 -4.0625 C 3.9375 -4.0625 4.296875 -4.140625 4.609375 -4.296875 C 4.921875 -4.460938 5.164062 -4.691406 5.34375 -4.984375 C 5.53125 -5.285156 5.625 -5.617188 5.625 -5.984375 C 5.625 -6.359375 5.53125 -6.691406 5.34375 -6.984375 C 5.164062 -7.285156 4.921875 -7.519531 4.609375 -7.6875 C 4.296875 -7.851562 3.9375 -7.9375 3.53125 -7.9375 L 1.765625 -7.9375 L 1.765625 -4.0625 Z M 3.53125 -4.0625 "/></g></g></g><g fill="#ffc542" fill-opacity="1"><g transform="translate(209.251204, 215.824966)"><g><path d="M 1.4375 0 C 1.332031 0 1.25 -0.03125 1.1875 -0.09375 C 1.125 -0.15625 1.09375 -0.234375 1.09375 -0.328125 L 1.09375 -8.265625 C 1.09375 -8.359375 1.125 -8.4375 1.1875 -8.5 C 1.25 -8.5625 1.332031 -8.59375 1.4375 -8.59375 L 6.71875 -8.59375 C 6.8125 -8.59375 6.890625 -8.5625 6.953125 -8.5 C 7.015625 -8.4375 7.046875 -8.359375 7.046875 -8.265625 C 7.046875 -8.171875 7.015625 -8.09375 6.953125 -8.03125 C 6.890625 -7.96875 6.8125 -7.9375 6.71875 -7.9375 L 1.765625 -7.9375 L 1.765625 -4.625 L 5.40625 -4.625 C 5.5 -4.625 5.578125 -4.59375 5.640625 -4.53125 C 5.703125 -4.46875 5.734375 -4.390625 5.734375 -4.296875 C 5.734375 -4.203125 5.703125 -4.117188 5.640625 -4.046875 C 5.578125 -3.984375 5.5 -3.953125 5.40625 -3.953125 L 1.765625 -3.953125 L 1.765625 -0.65625 L 6.71875 -0.65625 C 6.8125 -0.65625 6.890625 -0.625 6.953125 -0.5625 C 7.015625 -0.5 7.046875 -0.421875 7.046875 -0.328125 C 7.046875 -0.234375 7.015625 -0.15625 6.953125 -0.09375 C 6.890625 -0.03125 6.8125 0 6.71875 0 Z M 1.4375 0 "/></g></g></g><g fill="#ffc542" fill-opacity="1"><g transform="translate(216.791876, 215.824966)"><g/></g></g><g fill="#ffc542" fill-opacity="1"><g transform="translate(220.012598, 215.824966)"><g><path d="M 1.4375 0 C 1.332031 0 1.25 -0.03125 1.1875 -0.09375 C 1.125 -0.15625 1.09375 -0.234375 1.09375 -0.328125 L 1.09375 -8.265625 C 1.09375 -8.367188 1.125 -8.445312 1.1875 -8.5 C 1.25 -8.5625 1.332031 -8.59375 1.4375 -8.59375 L 3.40625 -8.59375 C 4.238281 -8.59375 4.976562 -8.40625 5.625 -8.03125 C 6.28125 -7.664062 6.789062 -7.160156 7.15625 -6.515625 C 7.53125 -5.867188 7.71875 -5.128906 7.71875 -4.296875 C 7.71875 -3.472656 7.53125 -2.734375 7.15625 -2.078125 C 6.789062 -1.421875 6.28125 -0.910156 5.625 -0.546875 C 4.976562 -0.179688 4.238281 0 3.40625 0 Z M 3.40625 -0.59375 C 4.113281 -0.59375 4.738281 -0.75 5.28125 -1.0625 C 5.832031 -1.382812 6.265625 -1.828125 6.578125 -2.390625 C 6.890625 -2.960938 7.046875 -3.597656 7.046875 -4.296875 C 7.046875 -5.003906 6.890625 -5.640625 6.578125 -6.203125 C 6.265625 -6.765625 5.832031 -7.203125 5.28125 -7.515625 C 4.738281 -7.835938 4.113281 -8 3.40625 -8 L 1.765625 -8 L 1.765625 -0.59375 Z M 3.40625 -0.59375 "/></g></g></g><g fill="#ffc542" fill-opacity="1"><g transform="translate(228.377679, 215.824966)"><g><path d="M 1.4375 0 C 1.332031 0 1.25 -0.03125 1.1875 -0.09375 C 1.125 -0.15625 1.09375 -0.234375 1.09375 -0.328125 L 1.09375 -8.265625 C 1.09375 -8.359375 1.125 -8.4375 1.1875 -8.5 C 1.25 -8.5625 1.332031 -8.59375 1.4375 -8.59375 L 6.71875 -8.59375 C 6.8125 -8.59375 6.890625 -8.5625 6.953125 -8.5 C 7.015625 -8.4375 7.046875 -8.359375 7.046875 -8.265625 C 7.046875 -8.171875 7.015625 -8.09375 6.953125 -8.03125 C 6.890625 -7.96875 6.8125 -7.9375 6.71875 -7.9375 L 1.765625 -7.9375 L 1.765625 -4.625 L 5.40625 -4.625 C 5.5 -4.625 5.578125 -4.59375 5.640625 -4.53125 C 5.703125 -4.46875 5.734375 -4.390625 5.734375 -4.296875 C 5.734375 -4.203125 5.703125 -4.117188 5.640625 -4.046875 C 5.578125 -3.984375 5.5 -3.953125 5.40625 -3.953125 L 1.765625 -3.953125 L 1.765625 -0.65625 L 6.71875 -0.65625 C 6.8125 -0.65625 6.890625 -0.625 6.953125 -0.5625 C 7.015625 -0.5 7.046875 -0.421875 7.046875 -0.328125 C 7.046875 -0.234375 7.015625 -0.15625 6.953125 -0.09375 C 6.890625 -0.03125 6.8125 0 6.71875 0 Z M 1.4375 0 "/></g></g></g><g fill="#ffc542" fill-opacity="1"><g transform="translate(235.918351, 215.824966)"><g><path d="M 7.21875 -8.59375 C 7.300781 -8.59375 7.367188 -8.5625 7.421875 -8.5 C 7.472656 -8.445312 7.5 -8.367188 7.5 -8.265625 C 7.5 -8.191406 7.484375 -8.117188 7.453125 -8.046875 L 4.171875 -0.203125 C 4.097656 -0.0664062 4 0 3.875 0 C 3.800781 0 3.738281 -0.015625 3.6875 -0.046875 C 3.644531 -0.078125 3.609375 -0.128906 3.578125 -0.203125 L 0.28125 -8.046875 C 0.238281 -8.140625 0.21875 -8.21875 0.21875 -8.28125 C 0.21875 -8.375 0.25 -8.445312 0.3125 -8.5 C 0.382812 -8.5625 0.46875 -8.59375 0.5625 -8.59375 C 0.632812 -8.59375 0.695312 -8.570312 0.75 -8.53125 C 0.800781 -8.5 0.84375 -8.441406 0.875 -8.359375 L 3.890625 -1.171875 L 6.859375 -8.3125 C 6.890625 -8.40625 6.929688 -8.472656 6.984375 -8.515625 C 7.046875 -8.566406 7.125 -8.59375 7.21875 -8.59375 Z M 7.21875 -8.59375 "/></g></g></g><g fill="#ffc542" fill-opacity="1"><g transform="translate(243.634895, 215.824966)"><g><path d="M 1.4375 0 C 1.332031 0 1.25 -0.03125 1.1875 -0.09375 C 1.125 -0.15625 1.09375 -0.234375 1.09375 -0.328125 L 1.09375 -8.265625 C 1.09375 -8.359375 1.125 -8.4375 1.1875 -8.5 C 1.25 -8.5625 1.332031 -8.59375 1.4375 -8.59375 L 6.71875 -8.59375 C 6.8125 -8.59375 6.890625 -8.5625 6.953125 -8.5 C 7.015625 -8.4375 7.046875 -8.359375 7.046875 -8.265625 C 7.046875 -8.171875 7.015625 -8.09375 6.953125 -8.03125 C 6.890625 -7.96875 6.8125 -7.9375 6.71875 -7.9375 L 1.765625 -7.9375 L 1.765625 -4.625 L 5.40625 -4.625 C 5.5 -4.625 5.578125 -4.59375 5.640625 -4.53125 C 5.703125 -4.46875 5.734375 -4.390625 5.734375 -4.296875 C 5.734375 -4.203125 5.703125 -4.117188 5.640625 -4.046875 C 5.578125 -3.984375 5.5 -3.953125 5.40625 -3.953125 L 1.765625 -3.953125 L 1.765625 -0.65625 L 6.71875 -0.65625 C 6.8125 -0.65625 6.890625 -0.625 6.953125 -0.5625 C 7.015625 -0.5 7.046875 -0.421875 7.046875 -0.328125 C 7.046875 -0.234375 7.015625 -0.15625 6.953125 -0.09375 C 6.890625 -0.03125 6.8125 0 6.71875 0 Z M 1.4375 0 "/></g></g></g><g fill="#ffc542" fill-opacity="1"><g transform="translate(251.175567, 215.824966)"><g><path d="M 1.4375 0 C 1.34375 0 1.257812 -0.03125 1.1875 -0.09375 C 1.125 -0.15625 1.09375 -0.234375 1.09375 -0.328125 L 1.09375 -8.265625 C 1.09375 -8.359375 1.125 -8.4375 1.1875 -8.5 C 1.257812 -8.5625 1.34375 -8.59375 1.4375 -8.59375 C 1.53125 -8.59375 1.609375 -8.5625 1.671875 -8.5 C 1.734375 -8.4375 1.765625 -8.359375 1.765625 -8.265625 L 1.765625 -0.59375 L 6.28125 -0.59375 C 6.375 -0.59375 6.453125 -0.5625 6.515625 -0.5 C 6.578125 -0.445312 6.609375 -0.378906 6.609375 -0.296875 C 6.609375 -0.210938 6.578125 -0.140625 6.515625 -0.078125 C 6.453125 -0.0234375 6.375 0 6.28125 0 Z M 1.4375 0 "/></g></g></g><g fill="#ffc542" fill-opacity="1"><g transform="translate(257.506953, 215.824966)"><g><path d="M 5.078125 0.109375 C 4.242188 0.109375 3.488281 -0.0820312 2.8125 -0.46875 C 2.144531 -0.851562 1.617188 -1.378906 1.234375 -2.046875 C 0.847656 -2.722656 0.65625 -3.472656 0.65625 -4.296875 C 0.65625 -5.117188 0.847656 -5.863281 1.234375 -6.53125 C 1.617188 -7.207031 2.144531 -7.738281 2.8125 -8.125 C 3.488281 -8.507812 4.242188 -8.703125 5.078125 -8.703125 C 5.890625 -8.703125 6.628906 -8.507812 7.296875 -8.125 C 7.972656 -7.738281 8.503906 -7.207031 8.890625 -6.53125 C 9.273438 -5.863281 9.46875 -5.117188 9.46875 -4.296875 C 9.46875 -3.472656 9.273438 -2.722656 8.890625 -2.046875 C 8.503906 -1.378906 7.972656 -0.851562 7.296875 -0.46875 C 6.628906 -0.0820312 5.890625 0.109375 5.078125 0.109375 Z M 5.078125 -0.546875 C 5.765625 -0.546875 6.394531 -0.707031 6.96875 -1.03125 C 7.539062 -1.363281 7.988281 -1.816406 8.3125 -2.390625 C 8.644531 -2.960938 8.8125 -3.597656 8.8125 -4.296875 C 8.8125 -4.992188 8.644531 -5.628906 8.3125 -6.203125 C 7.988281 -6.773438 7.539062 -7.222656 6.96875 -7.546875 C 6.394531 -7.878906 5.765625 -8.046875 5.078125 -8.046875 C 4.367188 -8.046875 3.726562 -7.878906 3.15625 -7.546875 C 2.582031 -7.222656 2.128906 -6.773438 1.796875 -6.203125 C 1.472656 -5.628906 1.3125 -4.992188 1.3125 -4.296875 C 1.3125 -3.597656 1.472656 -2.960938 1.796875 -2.390625 C 2.128906 -1.816406 2.582031 -1.363281 3.15625 -1.03125 C 3.726562 -0.707031 4.367188 -0.546875 5.078125 -0.546875 Z M 5.078125 -0.546875 "/></g></g></g><g fill="#ffc542" fill-opacity="1"><g transform="translate(267.630797, 215.824966)"><g><path d="M 1.4375 0 C 1.332031 0 1.25 -0.03125 1.1875 -0.09375 C 1.125 -0.15625 1.09375 -0.234375 1.09375 -0.328125 L 1.09375 -8.265625 C 1.09375 -8.367188 1.125 -8.445312 1.1875 -8.5 C 1.25 -8.5625 1.332031 -8.59375 1.4375 -8.59375 L 3.625 -8.59375 C 4.15625 -8.59375 4.628906 -8.472656 5.046875 -8.234375 C 5.460938 -8.003906 5.785156 -7.679688 6.015625 -7.265625 C 6.253906 -6.847656 6.375 -6.375 6.375 -5.84375 C 6.375 -5.300781 6.253906 -4.820312 6.015625 -4.40625 C 5.785156 -3.988281 5.460938 -3.660156 5.046875 -3.421875 C 4.628906 -3.191406 4.15625 -3.078125 3.625 -3.078125 L 1.765625 -3.078125 L 1.765625 -0.328125 C 1.765625 -0.234375 1.734375 -0.15625 1.671875 -0.09375 C 1.609375 -0.03125 1.53125 0 1.4375 0 Z M 3.625 -3.734375 C 4.03125 -3.734375 4.390625 -3.820312 4.703125 -4 C 5.023438 -4.1875 5.273438 -4.4375 5.453125 -4.75 C 5.628906 -5.070312 5.71875 -5.4375 5.71875 -5.84375 C 5.71875 -6.25 5.628906 -6.609375 5.453125 -6.921875 C 5.273438 -7.234375 5.023438 -7.476562 4.703125 -7.65625 C 4.390625 -7.84375 4.03125 -7.9375 3.625 -7.9375 L 1.765625 -7.9375 L 1.765625 -3.734375 Z M 3.625 -3.734375 "/></g></g></g><g fill="#ffc542" fill-opacity="1"><g transform="translate(274.281095, 215.824966)"><g><path d="M 1.4375 0 C 1.332031 0 1.25 -0.03125 1.1875 -0.09375 C 1.125 -0.15625 1.09375 -0.234375 1.09375 -0.328125 L 1.09375 -8.265625 C 1.09375 -8.359375 1.125 -8.4375 1.1875 -8.5 C 1.25 -8.5625 1.332031 -8.59375 1.4375 -8.59375 L 6.71875 -8.59375 C 6.8125 -8.59375 6.890625 -8.5625 6.953125 -8.5 C 7.015625 -8.4375 7.046875 -8.359375 7.046875 -8.265625 C 7.046875 -8.171875 7.015625 -8.09375 6.953125 -8.03125 C 6.890625 -7.96875 6.8125 -7.9375 6.71875 -7.9375 L 1.765625 -7.9375 L 1.765625 -4.625 L 5.40625 -4.625 C 5.5 -4.625 5.578125 -4.59375 5.640625 -4.53125 C 5.703125 -4.46875 5.734375 -4.390625 5.734375 -4.296875 C 5.734375 -4.203125 5.703125 -4.117188 5.640625 -4.046875 C 5.578125 -3.984375 5.5 -3.953125 5.40625 -3.953125 L 1.765625 -3.953125 L 1.765625 -0.65625 L 6.71875 -0.65625 C 6.8125 -0.65625 6.890625 -0.625 6.953125 -0.5625 C 7.015625 -0.5 7.046875 -0.421875 7.046875 -0.328125 C 7.046875 -0.234375 7.015625 -0.15625 6.953125 -0.09375 C 6.890625 -0.03125 6.8125 0 6.71875 0 Z M 1.4375 0 "/></g></g></g><g fill="#ffc542" fill-opacity="1"><g transform="translate(281.821779, 215.824966)"><g><path d="M 6.328125 -0.5 C 6.378906 -0.40625 6.40625 -0.320312 6.40625 -0.25 C 6.40625 -0.164062 6.375 -0.101562 6.3125 -0.0625 C 6.25 -0.0195312 6.160156 0 6.046875 0 C 5.972656 0 5.914062 -0.015625 5.875 -0.046875 C 5.832031 -0.078125 5.789062 -0.117188 5.75 -0.171875 L 3.734375 -3.40625 L 1.765625 -3.40625 L 1.765625 -0.328125 C 1.765625 -0.234375 1.734375 -0.15625 1.671875 -0.09375 C 1.609375 -0.03125 1.53125 0 1.4375 0 C 1.332031 0 1.25 -0.03125 1.1875 -0.09375 C 1.125 -0.15625 1.09375 -0.234375 1.09375 -0.328125 L 1.09375 -8.265625 C 1.09375 -8.367188 1.125 -8.445312 1.1875 -8.5 C 1.25 -8.5625 1.332031 -8.59375 1.4375 -8.59375 L 3.53125 -8.59375 C 4.0625 -8.59375 4.535156 -8.484375 4.953125 -8.265625 C 5.367188 -8.046875 5.691406 -7.738281 5.921875 -7.34375 C 6.160156 -6.945312 6.28125 -6.492188 6.28125 -5.984375 C 6.28125 -5.378906 6.113281 -4.859375 5.78125 -4.421875 C 5.445312 -3.984375 5 -3.6875 4.4375 -3.53125 Z M 3.53125 -4.0625 C 3.9375 -4.0625 4.296875 -4.140625 4.609375 -4.296875 C 4.921875 -4.460938 5.164062 -4.691406 5.34375 -4.984375 C 5.53125 -5.285156 5.625 -5.617188 5.625 -5.984375 C 5.625 -6.359375 5.53125 -6.691406 5.34375 -6.984375 C 5.164062 -7.285156 4.921875 -7.519531 4.609375 -7.6875 C 4.296875 -7.851562 3.9375 -7.9375 3.53125 -7.9375 L 1.765625 -7.9375 L 1.765625 -4.0625 Z M 3.53125 -4.0625 "/></g></g></g></svg>