<svg width="500" height="500" viewBox="0 0 500 500" fill="none" xmlns="http://www.w3.org/2000/svg">
<mask id="mask0_33_2" style="mask-type:luminance" maskUnits="userSpaceOnUse" x="180" y="172" width="277" height="159">
<path d="M180.847 172.894H456.769V330.832H180.847V172.894Z" fill="white"/>
</mask>
<g mask="url(#mask0_33_2)">
<path d="M240.986 324.063L182.808 166.587H231.084L249.377 218.781L264.986 262.892L281.18 218.781L300.676 166.587H337.569L357.065 218.781L373.26 263.17L385.308 230.61H394.156H407.429H430.393L397.228 324.063H354.967L319.246 228.097L283.278 324.063H240.986Z" fill="#263238"/>
</g>
<mask id="mask1_33_2" style="mask-type:luminance" maskUnits="userSpaceOnUse" x="402" y="229" width="72" height="84">
<path d="M408.051 229.211L473.107 233.517L467.862 312.751L402.806 308.445L408.051 229.211Z" fill="white"/>
</mask>
<g mask="url(#mask1_33_2)">
<mask id="mask2_33_2" style="mask-type:luminance" maskUnits="userSpaceOnUse" x="402" y="230" width="72" height="82">
<path d="M430.022 230.665L473.107 233.517L445.897 311.19L402.813 308.338L430.022 230.665Z" fill="white"/>
</mask>
<g mask="url(#mask2_33_2)">
<mask id="mask3_33_2" style="mask-type:luminance" maskUnits="userSpaceOnUse" x="401" y="227" width="73" height="87">
<path d="M473.488 231.841L406.528 227.409L401.097 309.451L468.057 313.883L473.488 231.841Z" fill="white"/>
</mask>
<g mask="url(#mask3_33_2)">
<mask id="mask4_33_2" style="mask-type:luminance" maskUnits="userSpaceOnUse" x="402" y="229" width="72" height="84">
<path d="M408.051 229.211L473.107 233.517L467.862 312.751L402.806 308.445L408.051 229.211Z" fill="white"/>
</mask>
<g mask="url(#mask4_33_2)">
<mask id="mask5_33_2" style="mask-type:luminance" maskUnits="userSpaceOnUse" x="402" y="230" width="72" height="82">
<path d="M430.022 230.665L473.107 233.517L445.897 311.19L402.813 308.338L430.022 230.665Z" fill="white"/>
</mask>
<g mask="url(#mask5_33_2)">
<path d="M408.051 229.211L473.107 233.517L467.862 312.751L402.806 308.445L408.051 229.211Z" fill="#FF575F"/>
</g>
</g>
</g>
</g>
</g>
<path d="M145.436 325.94C129.966 332.479 114.928 335.039 100.307 333.621C85.7006 332.202 72.6522 327.143 61.1616 318.444C49.6709 309.729 40.7329 297.822 34.3553 282.722C27.9853 267.607 25.7489 252.916 27.6614 238.642C29.5585 224.375 35.0802 211.511 44.2264 200.052C53.3803 188.576 65.7887 179.531 81.4591 172.906C98.0318 165.919 113.895 163.559 129.056 165.842C144.233 168.125 157.791 174.556 169.744 185.122C181.713 195.695 190.982 210.015 197.568 228.092L81.2123 277.232C87.4435 286.324 95.0705 292.054 104.101 294.414C113.124 296.781 122.424 295.948 131.987 291.915C138.997 288.954 144.835 284.913 149.508 279.792C154.197 274.671 157.266 268.98 158.732 262.703L201.301 244.719C201.486 262.656 196.681 278.789 186.895 293.118C177.101 307.454 163.282 318.397 145.436 325.94ZM70.2924 250.549L145.683 218.714C139.575 210.902 132.18 205.843 123.504 203.537C114.844 201.216 105.62 202.118 95.8339 206.252C86.6415 210.139 79.7471 216.046 75.1662 223.958C70.5777 231.855 68.9505 240.724 70.2924 250.549Z" fill="#263238"/>
</svg>
