<svg width="1059" height="402" viewBox="0 0 1059 402" fill="none" xmlns="http://www.w3.org/2000/svg">
<mask id="mask0_18_186" style="mask-type:luminance" maskUnits="userSpaceOnUse" x="365" y="18" width="655" height="376">
<path d="M365.117 18.7347H1019.95V393.561H365.117V18.7347Z" fill="white"/>
</mask>
<g mask="url(#mask0_18_186)">
<path d="M507.842 377.495L369.771 3.76672H484.342L527.755 127.635L564.798 232.323L603.232 127.635L649.5 3.76672H737.057L783.325 127.635L821.759 232.982L850.352 155.71H871.352H902.852H957.352L878.642 377.495H778.347L693.572 149.744L608.211 377.495H507.842Z" fill="white"/>
</g>
<mask id="mask1_18_186" style="mask-type:luminance" maskUnits="userSpaceOnUse" x="891" y="152" width="168" height="199">
<path d="M904.329 152.389L1058.72 162.609L1046.27 350.651L891.881 340.431L904.329 152.389Z" fill="white"/>
</mask>
<g mask="url(#mask1_18_186)">
<mask id="mask2_18_186" style="mask-type:luminance" maskUnits="userSpaceOnUse" x="891" y="155" width="168" height="192">
<path d="M956.472 155.84L1058.72 162.609L994.147 346.946L891.898 340.177L956.472 155.84Z" fill="white"/>
</mask>
<g mask="url(#mask2_18_186)">
<mask id="mask3_18_186" style="mask-type:luminance" maskUnits="userSpaceOnUse" x="887" y="148" width="173" height="206">
<path d="M1059.63 158.631L900.715 148.112L887.826 342.818L1046.74 353.337L1059.63 158.631Z" fill="white"/>
</mask>
<g mask="url(#mask3_18_186)">
<mask id="mask4_18_186" style="mask-type:luminance" maskUnits="userSpaceOnUse" x="891" y="152" width="168" height="199">
<path d="M904.329 152.389L1058.72 162.609L1046.27 350.651L891.881 340.431L904.329 152.389Z" fill="white"/>
</mask>
<g mask="url(#mask4_18_186)">
<mask id="mask5_18_186" style="mask-type:luminance" maskUnits="userSpaceOnUse" x="891" y="155" width="168" height="192">
<path d="M956.472 155.84L1058.72 162.609L994.148 346.946L891.898 340.177L956.472 155.84Z" fill="white"/>
</mask>
<g mask="url(#mask5_18_186)">
<path d="M904.329 152.389L1058.72 162.609L1046.27 350.651L891.881 340.431L904.329 152.389Z" fill="#FF575F"/>
</g>
</g>
</g>
</g>
</g>
<path d="M281.079 381.95C244.365 397.47 208.676 403.546 173.975 400.178C139.311 396.811 108.344 384.805 81.0739 364.16C53.8038 343.479 32.5917 315.22 17.4559 279.385C2.33835 243.513 -2.96925 208.647 1.56966 174.77C6.07197 140.911 19.1763 110.383 40.8825 83.1864C62.6071 55.9529 92.0552 34.4845 129.245 18.763C168.576 2.18135 206.224 -3.41909 242.205 1.99833C278.224 7.41575 310.399 22.6797 338.767 47.7535C367.172 72.8457 389.171 106.833 404.801 149.733L128.659 266.354C143.447 287.932 161.548 301.53 182.98 307.131C204.393 312.749 226.466 310.773 249.16 301.201C265.797 294.173 279.652 284.582 290.743 272.43C301.87 260.277 309.154 246.77 312.632 231.872L413.659 189.192C414.099 231.763 402.696 270.051 379.471 304.056C356.227 338.079 323.43 364.05 281.079 381.95ZM102.744 203.028L281.665 127.477C267.17 108.937 249.618 96.9312 229.028 91.4589C208.475 85.95 186.585 88.0913 163.36 97.9012C141.544 107.125 125.182 121.145 114.31 139.923C103.421 158.664 99.559 179.712 102.744 203.028Z" fill="white"/>
</svg>
